<svg id="Layer_1" data-name="Layer 1" xmlns="http://www.w3.org/2000/svg" viewBox="0 0 148.07 122.15"><defs><style>.cls-1{fill:#fff;}</style></defs><path class="cls-1" d="M147.75,97.59l3.07,2.29a2,2,0,0,0,.93.3,1.9,1.9,0,0,0,1-.05,1.88,1.88,0,0,0,.85-.44,2,2,0,0,0,.64-.7,2.52,2.52,0,0,0,.25-1.93l-.25-.6a2.59,2.59,0,0,0-.9-.9l-3.07-2.29a1.78,1.78,0,0,0-.92-.29,2.59,2.59,0,0,0-2.5,1.19,2.55,2.55,0,0,0-.25,1.93l.25.59a2.59,2.59,0,0,0,.9.9Z" transform="translate(-6.51 -32.92)"/><path class="cls-1" d="M58.77,64.23c-11.32,22.85-22.26,45.88-32.06,69.43q-3.78,9.09-7.37,18.25A2.51,2.51,0,0,0,21.08,155a2.56,2.56,0,0,0,3.08-1.75q12.93-32.79,28.22-64.55,5.26-11,10.7-21.93c1.43-2.87-2.88-5.41-4.31-2.52Z" transform="translate(-6.51 -32.92)"/><path class="cls-1" d="M26.89,97.23,9.25,109.75l1.92-.25c.19.07.21.15.35.28s-.24.18,0,0c-.07.08,0,.26,0-.08,0-.7-.11.3.05-.43a6.09,6.09,0,0,1,1.16-2.42,57,57,0,0,1,4.95-5.2A124.7,124.7,0,0,1,56.75,75.29a122.34,122.34,0,0,1,16.74-5.72L70.67,65.9A131,131,0,0,0,55.19,92.83c-.95,2.18,1.06,4.73,3.42,3.42,9.26-5.16,16-13.85,22.22-22.24,3.08-4.15,5.29-9.3,2.69-14.27-2.3-4.41-7.94-5.7-11.62-2.17a8.65,8.65,0,0,0,.42,12.73c4,3.5,9.17,3.23,14.12,2.64a25.83,25.83,0,0,0,6.7-1.31,20.68,20.68,0,0,0,5.36-3.29c2.59-2.16,5.2-5.27,5.55-8.75a5.21,5.21,0,0,0-6.37-5.49A10.15,10.15,0,0,0,93,57.54c-3.92,4.49-6.84,9.9-9.48,15.2a85.58,85.58,0,0,0-6.6,16.41c-.44,1.75-1,3.82-.44,5.61,1.31,4.5,7.83,1.89,10.55.32,4.53-2.61,8.08-6.81,11.51-10.67Q104,78.25,109,71.62a184.41,184.41,0,0,0,17.09-27.69c1.2-2.39,2.34-4.82,3.44-7.26a2.54,2.54,0,0,0-.65-3.23,2.5,2.5,0,0,0-3.28.2,179.38,179.38,0,0,0-23.37,34c-2.85,5.39-5.4,10.93-7.74,16.56a35.93,35.93,0,0,0-2.33,7.07c-.41,2.16-.58,4.73,1.07,6.45,2,2.11,4.54,1.2,6.59-.22a53.5,53.5,0,0,0,6.85-5.91A194,194,0,0,0,125,70.49c6.53-8.56,12.78-17.69,16.77-27.74a2.47,2.47,0,0,0-1.45-3,2.56,2.56,0,0,0-3.12,1,219.28,219.28,0,0,0-20.79,33c-2.09,4.1-6,10.63-2.1,14.91,1,1.14,2.64,2,4.14,1.22a29.11,29.11,0,0,0,3.7-2.57,68.92,68.92,0,0,0,6.71-5.72,65.94,65.94,0,0,0,11.91-15.81c1.3-2.41-2-5.22-3.93-3a101.15,101.15,0,0,0-13.93,19.85,2.53,2.53,0,0,0,1.49,3.67,12,12,0,0,0,5.53.14,33.28,33.28,0,0,1,4.94-.91,3.52,3.52,0,0,1,2.45,1,3.58,3.58,0,0,1,.6.83c.2.3-.17,0,0,0s-.26.27,0,0a2.55,2.55,0,0,0,0,3.53,2.5,2.5,0,0,0,3.53,0c2.95-3.36.67-7.71-2.93-9.44a10,10,0,0,0-6.5-.49c-2.08.4-4.2,1.21-6.31.59l1.49,3.67a95.41,95.41,0,0,1,13.16-18.83l-3.93-3a61.2,61.2,0,0,1-20.52,22.3h2.52c-.81-.41-.85-.92-.7-2.12a14.48,14.48,0,0,1,1.74-4.7q3.1-6.27,6.62-12.34a218.79,218.79,0,0,1,15.41-23.1l-4.57-1.92c-.36.91-.53,1.31-1,2.34s-.89,1.86-1.36,2.78c-1,2-2.08,3.89-3.21,5.79-2.41,4.05-5,8-7.82,11.77a202.44,202.44,0,0,1-17.24,20.75,92.48,92.48,0,0,1-7,6.81c-.47.41-1,.8-1.44,1.19.49-.39,0,0-.2.14s-.43.31-.66.45-.66.4-1,.59c-.55.33.18,0,.09,0a1.93,1.93,0,0,1-.41.12c1-.1.57-.06.34-.07,1.42.07,0,0,.79.18-.06,0-.57-.28.09.1l-.11-.12c.21.3.25.33.1.1l.11.27a2.68,2.68,0,0,1-.07-.27s-.07-.68,0,0a6.94,6.94,0,0,1,0-.79,11.17,11.17,0,0,1,.46-2.42c.31-1.14.7-2.25,1.12-3.35A151.75,151.75,0,0,1,105.08,73a174.17,174.17,0,0,1,24-35.77l-3.93-3A183,183,0,0,1,91.8,84.4c-3.29,3.51-7.26,7.86-12.46,7.83l1.26.34a2.33,2.33,0,0,1,.59.58s.23.72.09.14,0,.75,0,0c0-.21,0-.43,0-.64s0-.24,0-.35c0-.48-.13.64,0,.15.06-.28.09-.57.15-.85.14-.65.3-1.29.48-1.93.45-1.58,1-3.13,1.56-4.66.76-2,1.27-3.21,2.06-5a123.16,123.16,0,0,1,5.61-11c.94-1.64,1.93-3.25,3-4.82.44-.63.88-1.26,1.34-1.88s-.32.4.09-.11c.12-.15.23-.3.35-.44.26-.32.53-.64.81-1A15.47,15.47,0,0,1,98,59.6a4,4,0,0,0,.31-.27c.34-.35-.5.29-.09.07.23-.13.46-.29.68-.44.61-.4-.44.13.05,0s-.42.1-.42,0l.64.16c-.54-.18,0-.05.09.07-.56-.6,0,.06,0,0q-.33-.45-.12-.12c.12.24.1.18-.07-.17l0,.16q.08.4,0-.18c0,.13,0,.32,0,.44-.15.34.17-.62,0,0-.06.19-.11.39-.16.59s-.3.7-.08.21c-.1.21-.21.42-.32.63a11.26,11.26,0,0,1-1,1.49,17.13,17.13,0,0,1-4.75,4.06c-2.08,1.18-4.42,1.44-7,1.73s-5.92.83-8.48-.33c-2-.9-3.63-2.86-2.92-5,.59-1.74,2.27-2.85,3.63-1.89,2.31,1.65,1.85,5,.71,7.19-1.65,3.23-4.2,6.1-6.46,8.93-4.62,5.78-9.68,11.36-16.21,15l3.42,3.42A131.48,131.48,0,0,1,75,68.42c1.38-1.82-.9-4.18-2.83-3.67A129,129,0,0,0,33.53,82.22a132.42,132.42,0,0,0-16.74,13.3,104.19,104.19,0,0,0-7.44,7.57c-1.87,2.14-3.46,5.3-2.59,8.2.58,1.93,3,3.91,5,2.78a64.65,64.65,0,0,0,5.82-4.13l11.82-8.4a2.57,2.57,0,0,0,.9-3.42,2.52,2.52,0,0,0-3.42-.89Z" transform="translate(-6.51 -32.92)"/><path class="cls-1" d="M65.52,48.08a4.9,4.9,0,0,0,1.37-.22,8,8,0,0,0,.91-.38,2.9,2.9,0,0,0,.34-.19,6.36,6.36,0,0,0,.77-.6,1.66,1.66,0,0,0,.27-.26,7.55,7.55,0,0,0,.6-.77,2.27,2.27,0,0,0,.19-.34,2,2,0,0,0,.3-.93,1.9,1.9,0,0,0,0-1,1.88,1.88,0,0,0-.44-.85,1.91,1.91,0,0,0-.71-.64l-.59-.25a2.5,2.5,0,0,0-1.33,0l-.6.25a2.59,2.59,0,0,0-.9.9,2.46,2.46,0,0,1-.28.46l.39-.51a2.37,2.37,0,0,1-.5.5l.5-.39a2.51,2.51,0,0,1-.61.36l.6-.25a3.57,3.57,0,0,1-.66.18l.67-.09-.24,0a1.88,1.88,0,0,0-1,.22,1.83,1.83,0,0,0-.8.51A2.83,2.83,0,0,0,63,45.58l.09.66a2.5,2.5,0,0,0,.65,1.11l.5.39a2.53,2.53,0,0,0,1.26.34Z" transform="translate(-6.51 -32.92)"/></svg>